<mxfile host="app.diagrams.net" modified="2023-09-15T12:33:08.624Z" agent="Mozilla/5.0 (Windows NT 10.0; Win64; x64) AppleWebKit/537.36 (KHTML, like Gecko) Chrome/100.0.4896.75 Safari/537.36" version="21.2.3" etag="mHjHMicckCexb1vOBEP6" type="github">
  <diagram name="第 1 页" id="AJzrb9AAEu578ShWN9xk">
    <mxGraphModel>
      <root>
        <mxCell id="0" />
        <mxCell id="1" parent="0" />
      </root>
    </mxGraphModel>
  </diagram>
</mxfile>
